<svg width="70" height="78" viewBox="0 0 70 78" fill="none" xmlns="http://www.w3.org/2000/svg">
<g filter="url(#filter0_d)">
<path d="M34.0522 6.875H35.9272V8.75H34.0522V6.875Z" fill="#4277FF"/>
<path d="M29.465 8.15796L31.1975 7.43983L31.9156 9.17233L30.1831 9.89046L29.465 8.15796Z" fill="#4277FF"/>
<path d="M25.7069 11.1094L27.0325 9.78381L28.3582 11.1094L27.0325 12.4351L25.7069 11.1094Z" fill="#4277FF"/>
<path d="M23.3767 15.2637L24.0948 13.5312L25.8273 14.2493L25.1092 15.9818L23.3767 15.2637Z" fill="#4277FF"/>
<path d="M44.1674 14.2446L45.8999 13.5264L46.618 15.2589L44.8855 15.9771L44.1674 14.2446Z" fill="#4277FF"/>
<path d="M41.615 11.1109L42.9406 9.78528L44.2662 11.1109L42.9406 12.4365L41.615 11.1109Z" fill="#4277FF"/>
<path d="M38.0782 9.1712L38.7964 7.4387L40.5289 8.15683L39.8108 9.88933L38.0782 9.1712Z" fill="#4277FF"/>
<path d="M59.3666 46.1422L56.5541 21.7672C56.5277 21.5391 56.4185 21.3287 56.2473 21.1757C56.076 21.0228 55.8546 20.938 55.6251 20.9375H43.386C43.4202 20.6262 43.4374 20.3132 43.4376 20C43.4376 17.7622 42.5486 15.6161 40.9663 14.0338C39.3839 12.4514 37.2378 11.5625 35.0001 11.5625C32.7623 11.5625 30.6162 12.4514 29.0338 14.0338C27.4515 15.6161 26.5626 17.7622 26.5626 20C26.5627 20.3132 26.5799 20.6262 26.6141 20.9375H14.3751C14.1451 20.9376 13.9233 21.0222 13.7516 21.1751C13.58 21.3281 13.4706 21.5388 13.4441 21.7672L10.6316 46.1422C10.6153 46.2822 10.6307 46.4242 10.6768 46.5575C10.7229 46.6907 10.7985 46.8119 10.8979 46.9119C11.9651 47.9794 12.5646 49.4271 12.5646 50.9366C12.5646 52.4461 11.9651 53.8937 10.8979 54.9613C10.7664 55.0924 10.6768 55.2597 10.6405 55.4419C10.6042 55.624 10.6229 55.8129 10.6941 55.9844C10.7653 56.156 10.8859 56.3025 11.0405 56.4054C11.1951 56.5084 11.3768 56.563 11.5626 56.5625H31.2501C32.6371 56.5661 33.9751 56.0496 35.0001 55.115C36.025 56.0496 37.363 56.5661 38.7501 56.5625H43.4376V62.1875C43.4376 62.3729 43.4926 62.5541 43.5956 62.7082C43.6986 62.8624 43.845 62.9825 44.0163 63.0535C44.1876 63.1244 44.3761 63.143 44.5579 63.1068C44.7397 63.0706 44.9068 62.9814 45.0379 62.8503L48.1251 59.7631L51.2122 62.8503C51.3434 62.9814 51.5104 63.0706 51.6922 63.1068C51.874 63.143 52.0625 63.1244 52.2338 63.0535C52.4051 62.9825 52.5515 62.8624 52.6545 62.7082C52.7575 62.5541 52.8125 62.3729 52.8126 62.1875V56.5625H58.4376C58.6229 56.5625 58.8042 56.5075 58.9583 56.4044C59.1124 56.3014 59.2326 56.155 59.3035 55.9837C59.3744 55.8125 59.393 55.624 59.3568 55.4422C59.3207 55.2603 59.2314 55.0933 59.1004 54.9622C58.0331 53.8947 57.4336 52.447 57.4336 50.9375C57.4336 49.428 58.0331 47.9803 59.1004 46.9128C59.1999 46.8127 59.2756 46.6914 59.3217 46.558C59.3678 46.4245 59.3831 46.2824 59.3666 46.1422ZM35.0001 13.4375C36.7399 13.4395 38.408 14.1315 39.6383 15.3618C40.8685 16.5921 41.5606 18.2601 41.5626 20C41.5657 21.0254 41.3263 22.0369 40.8639 22.9521C40.4015 23.8673 39.7292 24.6601 38.9019 25.2659C38.7955 25.345 38.7071 25.4456 38.6424 25.5613C38.5778 25.6771 38.5384 25.8052 38.5269 25.9372L38.2232 29.375H35.9376V24.1381L38.4754 21.6003L37.1497 20.2747L35.0001 22.4244L32.8504 20.2747L31.5247 21.6003L34.0626 24.1381V29.375H31.7769L31.4732 25.9372C31.4617 25.8052 31.4223 25.6771 31.3577 25.5613C31.293 25.4456 31.2046 25.345 31.0982 25.2659C30.2709 24.6601 29.5987 23.8673 29.1363 22.9521C28.6739 22.0369 28.4344 21.0254 28.4376 20C28.4395 18.2601 29.1316 16.5921 30.3619 15.3618C31.5921 14.1315 33.2602 13.4395 35.0001 13.4375ZM32.1088 33.125L31.9429 31.25H38.0572L37.8913 33.125H32.1088ZM37.536 35C37.3697 35.5429 37.0336 36.0181 36.5771 36.3557C36.1206 36.6934 35.5678 36.8756 35.0001 36.8756C34.4323 36.8756 33.8795 36.6934 33.423 36.3557C32.9665 36.0181 32.6304 35.5429 32.4641 35H37.536ZM50.9376 59.9244L48.7879 57.7747C48.6121 57.5989 48.3736 57.5002 48.1251 57.5002C47.8765 57.5002 47.6381 57.5989 47.4622 57.7747L45.3126 59.9244V50.9375H50.9376V59.9244ZM56.5485 54.6875H52.8126V50C52.8126 49.7514 52.7138 49.5129 52.538 49.3371C52.3622 49.1613 52.1237 49.0625 51.8751 49.0625H39.6876V50.9375H43.4376V54.6875H38.7501C38.1654 54.6877 37.5889 54.5499 37.0676 54.2852C36.5462 54.0204 36.0948 53.6363 35.7501 53.1641C35.6588 53.0535 35.5443 52.9644 35.4146 52.9033C35.285 52.8422 35.1434 52.8105 35.0001 52.8105C34.8567 52.8105 34.7151 52.8422 34.5855 52.9033C34.4558 52.9644 34.3413 53.0535 34.2501 53.1641C33.9053 53.6363 33.4539 54.0204 32.9325 54.2852C32.4112 54.5499 31.8347 54.6877 31.2501 54.6875H13.4516C13.7851 54.0992 14.0374 53.4685 14.2016 52.8125H30.3126V50.9375H14.4416C14.4448 49.6225 14.1035 48.3296 13.4516 47.1875H31.2501C31.8347 47.1873 32.4112 47.3251 32.9325 47.5898C33.4539 47.8546 33.9053 48.2387 34.2501 48.7109C34.3413 48.8215 34.4558 48.9106 34.5855 48.9717C34.7151 49.0328 34.8567 49.0645 35.0001 49.0645C35.1434 49.0645 35.285 49.0328 35.4146 48.9717C35.5443 48.9106 35.6588 48.8215 35.7501 48.7109C36.0948 48.2387 36.5462 47.8546 37.0676 47.5898C37.5889 47.3251 38.1654 47.1873 38.7501 47.1875H56.5485C55.8993 48.3307 55.558 49.6228 55.558 50.9375C55.558 52.2522 55.8993 53.5443 56.5485 54.6875ZM38.7501 45.3125C37.363 45.3089 36.025 45.8254 35.0001 46.76C33.9751 45.8254 32.6371 45.3089 31.2501 45.3125H12.6144L15.2113 22.8125H27.0435C27.5548 24.2587 28.4534 25.5367 29.6413 26.5072L30.3126 34.145C30.3221 34.1932 30.3356 34.2405 30.3529 34.2866H30.3369L30.5929 35.3075C30.838 36.2899 31.4046 37.1621 32.2025 37.7854C33.0004 38.4087 33.9838 38.7472 34.9963 38.7472C36.0088 38.7472 36.9922 38.4087 37.7901 37.7854C38.5881 37.1621 39.1546 36.2899 39.3997 35.3075L39.6557 34.2866H39.6397C39.6596 34.2408 39.6755 34.1934 39.6876 34.145L40.3626 26.5072C41.5491 25.5363 42.4464 24.2583 42.9566 22.8125H54.7888L57.3857 45.3125H38.7501Z" fill="#4277FF"/>
<path d="M17.1874 35H25.6249C25.8736 35 26.112 34.9012 26.2879 34.7254C26.4637 34.5496 26.5624 34.3111 26.5624 34.0625V25.625C26.5624 25.3764 26.4637 25.1379 26.2879 24.9621C26.112 24.7863 25.8736 24.6875 25.6249 24.6875H18.1249C17.8941 24.6875 17.6715 24.7726 17.4995 24.9266C17.3276 25.0805 17.2185 25.2925 17.1931 25.5219L16.2556 33.9594C16.2411 34.0904 16.2544 34.223 16.2946 34.3485C16.3348 34.4741 16.401 34.5897 16.489 34.6879C16.5769 34.7861 16.6846 34.8647 16.8049 34.9184C16.9253 34.9722 17.0556 35 17.1874 35ZM18.9687 26.5625H24.6874V33.125H18.2346L18.9687 26.5625Z" fill="#4277FF"/>
<path d="M16.25 36.875H21.875V38.75H16.25V36.875Z" fill="#4277FF"/>
<path d="M23.75 36.875H25.625V38.75H23.75V36.875Z" fill="#4277FF"/>
<path d="M15.3125 40.625H23.75V42.5H15.3125V40.625Z" fill="#4277FF"/>
<path d="M25.625 40.625H30.3125V42.5H25.625V40.625Z" fill="#4277FF"/>
<path d="M43.4375 25.625H52.8125V27.5H43.4375V25.625Z" fill="#4277FF"/>
<path d="M42.5 29.375H44.375V31.25H42.5V29.375Z" fill="#4277FF"/>
<path d="M46.25 29.375H53.75V31.25H46.25V29.375Z" fill="#4277FF"/>
<path d="M41.5625 33.125H46.25V35H41.5625V33.125Z" fill="#4277FF"/>
<path d="M48.125 33.125H53.75V35H48.125V33.125Z" fill="#4277FF"/>
<path d="M52.8125 36.875H54.6875V38.75H52.8125V36.875Z" fill="#4277FF"/>
<path d="M40.625 36.875H50.9375V38.75H40.625V36.875Z" fill="#4277FF"/>
<path d="M38.75 40.625H48.125V42.5H38.75V40.625Z" fill="#4277FF"/>
<path d="M50 40.625H54.6875V42.5H50V40.625Z" fill="#4277FF"/>
</g>
<defs>
<filter id="filter0_d" x="-5" y="-1" width="80" height="80" filterUnits="userSpaceOnUse" color-interpolation-filters="sRGB">
<feFlood flood-opacity="0" result="BackgroundImageFix"/>
<feColorMatrix in="SourceAlpha" type="matrix" values="0 0 0 0 0 0 0 0 0 0 0 0 0 0 0 0 0 0 127 0"/>
<feOffset dy="4"/>
<feGaussianBlur stdDeviation="5"/>
<feColorMatrix type="matrix" values="0 0 0 0 0.258333 0 0 0 0 0.466 0 0 0 0 1 0 0 0 0.2 0"/>
<feBlend mode="normal" in2="BackgroundImageFix" result="effect1_dropShadow"/>
<feBlend mode="normal" in="SourceGraphic" in2="effect1_dropShadow" result="shape"/>
</filter>
</defs>
</svg>
