<svg width="80" height="80" viewBox="0 0 80 80" fill="none" xmlns="http://www.w3.org/2000/svg">
<g clip-path="url(#clip0)" filter="url(#filter0_d)">
<path d="M69.1458 21.7554C69.1457 21.7554 69.1457 21.7554 69.1455 21.7554L69.1436 21.7534L65.2707 21.2009C64.7264 21.1234 64.348 20.6192 64.4255 20.0749C64.4627 19.8133 64.6025 19.5773 64.8138 19.4188L67.9439 17.0712C68.3838 16.7413 68.4729 16.1173 68.143 15.6774L64.5589 10.8986C64.229 10.4587 63.605 10.3696 63.1651 10.6995L60.036 13.0471C59.5979 13.3795 58.9734 13.2938 58.641 12.8558C58.4796 12.6431 58.4104 12.3744 58.449 12.1102L59.0026 8.23741C59.0806 7.69307 58.7026 7.18869 58.1584 7.11053C58.1581 7.11053 58.1577 7.11041 58.1573 7.11041L52.2475 6.26616C51.7033 6.188 51.1987 6.56583 51.1205 7.11016C51.1205 7.11029 51.1205 7.11029 51.1205 7.11041L50.567 10.9832C50.4895 11.5276 49.9853 11.906 49.441 11.8285C49.1794 11.7913 48.9434 11.6515 48.7849 11.4402L46.4383 8.31009C46.1084 7.87016 45.4844 7.78106 45.0445 8.11097L42.0528 10.356C40.6993 10.2121 39.3343 10.2121 37.9808 10.356C29.1169 11.3691 22.1659 18.438 21.3019 27.3177C21.275 27.5995 21.265 27.8792 21.2511 28.159H20.9524C20.48 28.1599 20.0732 28.4927 19.9787 28.9555L19.2908 32.227L16.535 30.3264C16.1395 30.0535 15.6054 30.1021 15.2656 30.4419L12.2789 33.4286C11.9396 33.7682 11.8911 34.3016 12.1634 34.697L14.055 37.4478L10.7825 38.1357C10.3248 38.236 9.99901 38.6419 10 39.1104V43.0927C9.99975 43.5636 10.3297 43.9703 10.7905 44.0674L14.063 44.7554L12.1714 47.5062C11.8991 47.9015 11.9476 48.4349 12.2869 48.7745L15.2736 51.7613C15.6133 52.101 16.1475 52.1497 16.543 51.8768L19.2938 49.9802L19.9817 53.2527C20.0762 53.7155 20.483 54.0483 20.9554 54.0491H24.9377C25.4086 54.0494 25.8153 53.7195 25.9124 53.2586L26.6003 49.9861L29.3511 51.8778C29.7465 52.15 30.2799 52.1015 30.6195 51.7623L32.1656 50.2112V53.0486C32.1701 54.4649 32.9289 55.7715 34.1568 56.4773V62.0088C34.1568 64.2082 35.9398 65.9911 38.1391 65.9911H42.1215C44.3208 65.9911 46.1038 64.2082 46.1038 62.0088V56.4773C47.3317 55.7715 48.0905 54.4649 48.095 53.0486V49.108C48.122 47.45 48.9894 45.9193 50.3977 45.0441C51.2239 44.5081 52.0075 43.9089 52.7413 43.252L51.4132 41.7686C50.7568 42.357 50.0554 42.8933 49.3155 43.3725C47.3387 44.6132 46.1286 46.7742 46.1038 49.108V53.0486C46.1038 54.1483 45.2124 55.0397 44.1126 55.0397H36.148C35.0482 55.0397 34.1568 54.1483 34.1568 53.0486V49.0254C34.1338 46.7357 32.9427 44.6165 30.9988 43.4063C23.108 38.4481 20.7305 28.0319 25.6888 20.1411C28.7651 15.2452 34.134 12.2653 39.9162 12.2446C39.9014 12.2801 39.8884 12.3163 39.8774 12.3531C39.8405 12.6145 39.9089 12.8799 40.0676 13.0909L42.4142 16.22C42.6616 16.5402 42.6853 16.98 42.4739 17.3251C42.2703 17.6723 41.8767 17.8617 41.4783 17.804L37.6055 17.2504C37.0612 17.1724 36.5568 17.5503 36.4786 18.0945C36.4786 18.0949 36.4785 18.0953 36.4785 18.0957L35.6333 24.0084C35.5552 24.5526 35.9332 25.0571 36.4774 25.1353C36.4778 25.1353 36.4781 25.1354 36.4785 25.1354L40.3513 25.689C40.8957 25.7665 41.2741 26.2706 41.1966 26.815C41.1594 27.0766 41.0196 27.3125 40.8083 27.4711L37.6792 29.8176C37.2393 30.1476 37.1501 30.7715 37.4801 31.2115L41.0642 35.9903C41.3941 36.4302 42.0181 36.5193 42.458 36.1894L45.5881 33.8428C46.0284 33.5135 46.6524 33.6035 46.9816 34.0439C47.1392 34.2546 47.207 34.5192 47.1701 34.7796L46.6175 38.6524C46.5394 39.1967 46.9172 39.7013 47.4615 39.7794C47.4616 39.7794 47.4616 39.7794 47.4618 39.7794L53.3755 40.6247C53.4221 40.6307 53.469 40.6337 53.5159 40.6337C54.0116 40.6343 54.4321 40.2701 54.5025 39.7794L55.0551 35.9066C55.1326 35.3623 55.6367 34.9838 56.1811 35.0614C56.4427 35.0986 56.6786 35.2383 56.8372 35.4497L59.1847 38.5788C59.5147 39.0187 60.1386 39.1078 60.5786 38.7779L65.3574 35.1938C65.7973 34.8639 65.8864 34.2399 65.5565 33.8L63.2099 30.6709C62.9636 30.3502 62.9398 29.9111 63.1502 29.5658C63.3494 29.214 63.7466 29.0233 64.1457 29.0879L68.0185 29.6404C68.5628 29.7186 69.0674 29.3406 69.1455 28.7964C69.1455 28.7963 69.1455 28.7963 69.1455 28.7962L69.9898 22.8824C70.068 22.3381 69.6901 21.8336 69.1458 21.7554ZM36.148 57.0309H44.1126V59.0221H36.148V57.0309ZM36.148 61.0132H44.1126V62.0088C44.1126 63.1085 43.2212 64 42.1215 64H38.1391C37.0394 64 36.148 63.1085 36.148 62.0088V61.0132ZM28.2221 43.8444C28.7657 44.2889 29.3337 44.7028 29.9236 45.0839C30.8643 45.6784 31.5724 46.5778 31.9297 47.6316L29.7942 49.7631L27.7263 48.3375C26.8209 47.7135 25.581 47.9417 24.9569 48.8472C24.8073 49.0644 24.7023 49.309 24.648 49.567L24.1263 52.053H21.7598L21.2381 49.571C21.0116 48.4949 19.9557 47.8061 18.8796 48.0326C18.6216 48.0868 18.377 48.1919 18.1598 48.3414L16.091 49.7631L14.277 47.9532L15.7017 45.8863C16.3263 44.9812 16.0988 43.7412 15.1937 43.1166C14.9764 42.9667 14.7315 42.8614 14.4732 42.807L11.9912 42.2843V39.9188L14.4732 39.3961C15.5489 39.168 16.2361 38.1111 16.008 37.0352C15.9538 36.78 15.8502 36.538 15.7027 36.3228L14.277 34.25L16.091 32.44L18.1608 33.8657C19.0666 34.489 20.3065 34.2601 20.9299 33.3542C21.0792 33.1373 21.184 32.8929 21.2381 32.6351L21.4124 31.8068C21.5719 32.954 21.8361 34.084 22.2019 35.1828C18.926 35.5734 16.587 38.5457 16.9775 41.8215C17.3681 45.0973 20.3404 47.4363 23.6162 47.0458C25.5882 46.8106 27.3144 45.6108 28.2221 43.8444ZM26.676 42.4416C25.9326 44.5081 23.6548 45.5806 21.5883 44.8372C19.5219 44.0938 18.4494 41.816 19.1927 39.7496C19.7614 38.1687 21.2624 37.1158 22.9424 37.1192C22.9554 37.1192 22.9673 37.1192 22.9803 37.1192C23.8958 39.0934 25.1462 40.894 26.676 42.4416ZM67.3097 27.5258L64.4225 27.1136C62.7895 26.8804 61.2767 28.0153 61.0435 29.6481C60.9315 30.4323 61.1356 31.2289 61.611 31.8626L63.3602 34.1952L60.1744 36.5846L58.4241 34.253C57.4345 32.9332 55.5624 32.6655 54.2428 33.6551C53.6091 34.1303 53.1901 34.8377 53.0778 35.6219L52.6746 38.5131L48.7331 37.9496L49.1453 35.0624C49.3791 33.4295 48.2449 31.9162 46.612 31.6825C45.8274 31.5701 45.0304 31.7742 44.3964 32.2499L42.0637 33.9991L39.6743 30.8132L42.006 29.063C43.3257 28.0734 43.5934 26.2013 42.6038 24.8817C42.1287 24.248 41.4212 23.829 40.6371 23.7167L37.7499 23.3045L38.3134 19.363L41.2006 19.7752C42.8334 20.009 44.3467 18.8748 44.5804 17.242C44.6928 16.4573 44.4887 15.6603 44.0131 15.0263L42.2579 12.6916L45.4437 10.3022L47.194 12.6349C48.1836 13.9547 50.0556 14.2224 51.3753 13.2327C52.009 12.7576 52.428 12.0501 52.5402 11.266L52.9524 8.37878L56.8939 8.94129L56.4817 11.8285C56.2485 13.4615 57.3832 14.9743 59.0162 15.2075C59.8004 15.3195 60.597 15.1154 61.2307 14.64L63.5633 12.8908L65.9527 16.0766L63.6201 17.8269C62.3003 18.8165 62.0326 20.6885 63.0222 22.0082C63.4974 22.6419 64.2048 23.0609 64.989 23.1731L67.8762 23.5853L67.3097 27.5258Z" fill="#4277FF"/>
<path d="M52.81 15.4793C48.4113 15.4793 44.8453 19.0452 44.8453 23.444C44.8453 27.8427 48.4113 31.4086 52.81 31.4086C57.2087 31.4086 60.7746 27.8427 60.7746 23.444C60.7697 19.0472 57.2067 15.4842 52.81 15.4793ZM52.81 29.4175C49.5109 29.4175 46.8365 26.7431 46.8365 23.444C46.8365 20.1449 49.5109 17.4705 52.81 17.4705C56.1091 17.4705 58.7835 20.1449 58.7835 23.444C58.7796 26.7415 56.1075 29.4136 52.81 29.4175Z" fill="#4277FF"/>
<path d="M41.1258 50.0619H39.1346V53.0486H41.1258V50.0619Z" fill="#4277FF"/>
<path d="M35.7756 40.2842C29.6298 37.8834 26.5938 30.9549 28.9948 24.809C29.9252 22.4276 31.5949 20.4074 33.7586 19.0455L32.6943 17.361C26.1812 21.4641 24.2275 30.0703 28.3306 36.5834C29.9197 39.1058 32.2758 41.0523 35.0528 42.137C37.5109 43.0788 39.1341 45.4384 39.1347 48.0707H41.1259C41.129 44.617 39.0007 41.5196 35.7756 40.2842Z" fill="#4277FF"/>
<path d="M66.0153 43.0928H59.0463V45.0839H66.0153V43.0928Z" fill="#4277FF"/>
<path d="M58.6882 48.3007L57.4137 49.8305L63.3876 54.8076L64.6622 53.2778L58.6882 48.3007Z" fill="#4277FF"/>
<path d="M55.0639 51.0574H53.0728V58.0265H55.0639V51.0574Z" fill="#4277FF"/>
<path d="M18.9807 21.2192L11.0166 23.21L11.4992 25.1407L19.4633 23.1499L18.9807 21.2192Z" fill="#4277FF"/>
<path d="M13.8271 11.4208L12.6704 13.0402L19.6389 18.0176L20.7956 16.3982L13.8271 11.4208Z" fill="#4277FF"/>
<path d="M23.1297 6.00831L21.2007 6.50153L23.2369 14.4656L25.1659 13.9724L23.1297 6.00831Z" fill="#4277FF"/>
</g>
<defs>
<filter id="filter0_d" x="0" y="0" width="80" height="80" filterUnits="userSpaceOnUse" color-interpolation-filters="sRGB">
<feFlood flood-opacity="0" result="BackgroundImageFix"/>
<feColorMatrix in="SourceAlpha" type="matrix" values="0 0 0 0 0 0 0 0 0 0 0 0 0 0 0 0 0 0 127 0"/>
<feOffset dy="4"/>
<feGaussianBlur stdDeviation="5"/>
<feColorMatrix type="matrix" values="0 0 0 0 0.258333 0 0 0 0 0.466 0 0 0 0 1 0 0 0 0.2 0"/>
<feBlend mode="normal" in2="BackgroundImageFix" result="effect1_dropShadow"/>
<feBlend mode="normal" in="SourceGraphic" in2="effect1_dropShadow" result="shape"/>
</filter>
<clipPath id="clip0">
<rect width="60" height="60" fill="white" transform="translate(10 6)"/>
</clipPath>
</defs>
</svg>
