<svg width="78" height="74" viewBox="0 0 78 74" fill="none" xmlns="http://www.w3.org/2000/svg">
<g filter="url(#filter0_d)">
<path d="M11.8125 59.25H41.8125C41.9356 59.25 42.0575 59.2258 42.1713 59.1786C42.285 59.1315 42.3884 59.0625 42.4754 58.9754C42.5625 58.8884 42.6315 58.785 42.6787 58.6713C42.7258 58.5575 42.75 58.4356 42.75 58.3125V55.8883C42.7515 55.3446 42.6452 54.8061 42.4371 54.3038C42.229 53.8015 41.9234 53.3455 41.5379 52.9621L40.875 52.2992V37.6875C40.8721 35.2787 39.9432 32.9632 38.2805 31.2202C36.6179 29.4772 34.3487 28.4402 31.9427 28.3237L32.2634 27.522C32.9993 25.6867 33.3767 23.7274 33.375 21.75C33.375 21.6269 33.3508 21.505 33.3037 21.3912C33.2565 21.2775 33.1875 21.1741 33.1004 21.0871C33.0134 21 32.91 20.931 32.7963 20.8839C32.6825 20.8367 32.5606 20.8125 32.4375 20.8125H21.1875C21.0644 20.8125 20.9425 20.8367 20.8287 20.8839C20.715 20.931 20.6116 21 20.5246 21.0871C20.4375 21.1741 20.3685 21.2775 20.3214 21.3912C20.2743 21.505 20.25 21.6269 20.25 21.75C20.2483 23.7274 20.6257 25.6867 21.3616 27.522L21.6823 28.3237C19.2763 28.4402 17.0072 29.4772 15.3445 31.2202C13.6818 32.9632 12.7529 35.2787 12.75 37.6875V51.3617C12.7508 51.659 12.6927 51.9536 12.5789 52.2283C12.4651 52.503 12.2979 52.7524 12.0871 52.962C11.7016 53.3454 11.396 53.8015 11.1879 54.3038C10.9799 54.806 10.8735 55.3446 10.875 55.8883V58.3125C10.875 58.4356 10.8993 58.5575 10.9464 58.6713C10.9935 58.785 11.0625 58.8884 11.1496 58.9754C11.2367 59.0625 11.34 59.1315 11.4537 59.1786C11.5675 59.2258 11.6894 59.25 11.8125 59.25ZM31.4682 22.6875C31.3716 24.1079 31.0524 25.5043 30.5225 26.8256L29.9278 28.3125H23.6972L23.1025 26.8256C22.5726 25.5043 22.2535 24.1079 22.1568 22.6875H31.4682ZM12.75 55.8883C12.7492 55.591 12.8074 55.2964 12.9212 55.0217C13.0349 54.747 13.2021 54.4976 13.4129 54.2879C13.7984 53.9045 14.104 53.4485 14.3121 52.9462C14.5201 52.4439 14.6265 51.9054 14.625 51.3617V37.6875C14.6273 35.6991 15.4182 33.7927 16.8242 32.3867C18.2302 30.9807 20.1366 30.1898 22.125 30.1875H31.5C33.4884 30.1898 35.3948 30.9807 36.8008 32.3867C38.2069 33.7927 38.9978 35.6991 39 37.6875V51.75H35.25V53.625H39.5492L40.2121 54.288C40.4229 54.4976 40.5901 54.747 40.7039 55.0217C40.8177 55.2964 40.8758 55.591 40.875 55.8883V57.375H12.75V55.8883Z" fill="#4277FF"/>
<path d="M27.2279 43.3125H25.3529C24.9799 43.3125 24.6223 43.1643 24.3585 42.9006C24.0948 42.6369 23.9467 42.2792 23.9467 41.9062C23.9467 41.5333 24.0948 41.1756 24.3585 40.9119C24.6223 40.6482 24.9799 40.5 25.3529 40.5H29.1029V38.625H27.2279V36.75H25.3529V38.625C24.4827 38.625 23.6481 38.9707 23.0327 39.5861C22.4174 40.2014 22.0717 41.036 22.0717 41.9062C22.0717 42.7765 22.4174 43.6111 23.0327 44.2264C23.6481 44.8418 24.4827 45.1875 25.3529 45.1875H27.2279C27.6009 45.1875 27.9586 45.3357 28.2223 45.5994C28.486 45.8631 28.6342 46.2208 28.6342 46.5938C28.6342 46.9667 28.486 47.3244 28.2223 47.5881C27.9586 47.8518 27.6009 48 27.2279 48H22.5404V49.875H25.3529V51.369H27.2279V49.875C28.0982 49.875 28.9328 49.5293 29.5481 48.9139C30.1635 48.2986 30.5092 47.464 30.5092 46.5938C30.5092 45.7235 30.1635 44.8889 29.5481 44.2736C28.9328 43.6582 28.0982 43.3125 27.2279 43.3125Z" fill="#4277FF"/>
<path d="M66.1875 34.875H62.4375V25.5H64.3125C64.4356 25.5 64.5575 25.4758 64.6713 25.4286C64.785 25.3815 64.8884 25.3125 64.9754 25.2254C65.0625 25.1384 65.1315 25.035 65.1786 24.9213C65.2258 24.8075 65.25 24.6856 65.25 24.5625V13.3125C65.25 13.1894 65.2258 13.0675 65.1786 12.9537C65.1315 12.84 65.0625 12.7366 64.9754 12.6496C64.8884 12.5625 64.785 12.4935 64.6713 12.4464C64.5575 12.3992 64.4356 12.375 64.3125 12.375H64.3099C64.921 11.5648 65.251 10.5773 65.25 9.5625V7.6875C65.25 7.56438 65.2258 7.44247 65.1786 7.32873C65.1315 7.21499 65.0625 7.11164 64.9754 7.02458C64.8884 6.93752 64.785 6.86847 64.6713 6.82136C64.5575 6.77424 64.4356 6.75 64.3125 6.75H56.8125C56.6894 6.75 56.5675 6.77424 56.4537 6.82136C56.34 6.86847 56.2366 6.93752 56.1496 7.02458C56.0625 7.11164 55.9935 7.21499 55.9464 7.32873C55.8992 7.44247 55.875 7.56438 55.875 7.6875V9.5625C55.8742 10.3082 55.5776 11.0231 55.0503 11.5503C54.5231 12.0776 53.8082 12.3742 53.0625 12.375H38.0625C37.9394 12.375 37.8175 12.3992 37.7037 12.4464C37.59 12.4935 37.4866 12.5625 37.3996 12.6496C37.3125 12.7366 37.2435 12.84 37.1964 12.9537C37.1492 13.0675 37.125 13.1894 37.125 13.3125V23.625H35.25C35.1269 23.625 35.005 23.6492 34.8912 23.6964C34.7775 23.7435 34.6741 23.8125 34.5871 23.8996C34.5 23.9866 34.431 24.09 34.3839 24.2037C34.3367 24.3175 34.3125 24.4394 34.3125 24.5625V27.375H36.1875V25.5H43.6875V27.375H38.0625V29.25H43.6875V31.125H40.875V33H43.6875V34.875H42.75V36.75H48.375V38.625H44.625V40.5H48.375V42.375H44.625V44.25H48.375V46.125H41.8125V48H46.5V49.875H44.625V51.75H46.5V53.625H44.625V55.5H46.5V57.375H43.6875V59.25H64.3125C64.4356 59.25 64.5575 59.2258 64.6713 59.1786C64.785 59.1315 64.8884 59.0625 64.9754 58.9754C65.0625 58.8884 65.1315 58.785 65.1786 58.6713C65.2258 58.5575 65.25 58.4356 65.25 58.3125V48H66.1875C66.3106 48 66.4325 47.9758 66.5463 47.9286C66.66 47.8815 66.7634 47.8125 66.8504 47.7254C66.9375 47.6384 67.0065 47.535 67.0536 47.4213C67.1008 47.3075 67.125 47.1856 67.125 47.0625V35.8125C67.125 35.6894 67.1008 35.5675 67.0536 35.4537C67.0065 35.34 66.9375 35.2366 66.8504 35.1496C66.7634 35.0625 66.66 34.9935 66.5463 34.9464C66.4325 34.8992 66.3106 34.875 66.1875 34.875ZM65.25 38.625H57.75V36.75H65.25V38.625ZM55.875 51.75H63.375V53.625H55.875V51.75ZM57.75 40.5H65.25V42.375H57.75V40.5ZM53.0625 34.875V33H60.5625V34.875H53.0625ZM60.5625 31.125H53.0625V29.25H60.5625V31.125ZM60.5625 27.375H53.0625V25.5H60.5625V27.375ZM63.375 14.25V16.125H55.875V14.25H63.375ZM55.875 18H63.375V19.875H55.875V18ZM55.875 23.625V21.75H63.375V23.625H55.875ZM57.75 9.5625V8.625H63.375V9.5625C63.3742 10.3082 63.0776 11.0231 62.5503 11.5503C62.0231 12.0776 61.3082 12.3742 60.5625 12.375H56.8099C57.421 11.5648 57.751 10.5773 57.75 9.5625ZM54 14.25V23.625H48.375V14.25H54ZM39 14.25H46.5V16.125H40.875V18H46.5V19.875H40.875V21.75H46.5V23.625H39V14.25ZM45.5625 25.5H51.1875V34.875H45.5625V25.5ZM50.25 36.75H55.875V46.125H50.25V36.75ZM48.375 48H54V57.375H48.375V48ZM55.875 57.375V55.5H63.375V57.375H55.875ZM63.375 49.875H55.875V48H63.375V49.875ZM57.75 46.125V44.25H65.25V46.125H57.75Z" fill="#4277FF"/>
</g>
<defs>
<filter id="filter0_d" x="-1" y="-3" width="80" height="80" filterUnits="userSpaceOnUse" color-interpolation-filters="sRGB">
<feFlood flood-opacity="0" result="BackgroundImageFix"/>
<feColorMatrix in="SourceAlpha" type="matrix" values="0 0 0 0 0 0 0 0 0 0 0 0 0 0 0 0 0 0 127 0"/>
<feOffset dy="4"/>
<feGaussianBlur stdDeviation="5"/>
<feColorMatrix type="matrix" values="0 0 0 0 0.258333 0 0 0 0 0.466 0 0 0 0 1 0 0 0 0.2 0"/>
<feBlend mode="normal" in2="BackgroundImageFix" result="effect1_dropShadow"/>
<feBlend mode="normal" in="SourceGraphic" in2="effect1_dropShadow" result="shape"/>
</filter>
</defs>
</svg>
