<svg width="80" height="80" viewBox="0 0 80 80" fill="none" xmlns="http://www.w3.org/2000/svg">
<g clip-path="url(#clip0)" filter="url(#filter0_d)">
<path d="M25.0002 8.00029C24.5012 8.00029 23.9992 8.06729 23.5002 8.20029C22.0182 6.7953 20.0482 6.00031 18.0002 6.00031C13.5892 6.00031 10.0002 9.58928 10.0002 14.0003C10.0002 14.5533 10.4472 15.0002 11.0002 15.0002H30.0001C30.5531 15.0002 31.0001 14.5533 31.0001 14.0003C31.0001 10.6913 28.3091 8.00029 25.0002 8.00029ZM12.0832 13.0013V13.0003C12.5612 10.1663 15.0322 8.00029 18.0002 8.00029C19.6992 8.00029 21.3292 8.73229 22.4712 10.0093C22.7472 10.3193 23.1872 10.4253 23.5742 10.2773C25.9601 9.36228 28.3171 10.8433 28.8741 13.0013H12.0832Z" fill="#4277FF"/>
<path d="M27.0002 17.0002H25.0002V19.0002H27.0002V17.0002Z" fill="#4277FF"/>
<path d="M31.0001 17.0002H29.0001V19.0002H31.0001V17.0002Z" fill="#4277FF"/>
<path d="M35.0001 17.0002H33.0001V19.0002H35.0001V17.0002Z" fill="#4277FF"/>
<path d="M57 35.6944C57 34.2204 55.945 32.9764 54.493 32.7354L51.183 32.1834L51.819 29.0004H59.9999V35.0004H61.9999V28.0005V24.0005V15.6185L69.4469 11.8946C69.7859 11.7256 69.9999 11.3796 69.9999 11.0006C69.9999 10.6216 69.7859 10.2756 69.4469 10.1056L61.4469 6.10559C61.1359 5.95159 60.7679 5.96659 60.4739 6.14959C60.1799 6.33259 59.9999 6.65358 59.9999 7.00058V15.0005V23.0005H52.46C53.414 21.9375 54 20.5385 54 19.0005C54 15.6915 51.309 13.0005 48 13.0005C44.691 13.0005 42 15.6915 42 19.0005C42 20.7965 42.797 22.4065 44.051 23.5065L35.4361 31.1644L29.8431 33.9604L26.9751 33.4824C28.2141 32.3824 29.0001 30.7834 29.0001 29.0004C29.0001 25.6915 26.3091 23.0005 23.0002 23.0005C19.6912 23.0005 17.0002 25.6915 17.0002 29.0004C17.0002 30.8254 17.8222 32.4604 19.1122 33.5614C19.0982 33.5894 19.0782 33.6114 19.0672 33.6404L15.9672 41.7004C15.4002 43.1774 15.5532 44.7943 16.3882 46.1373C16.5472 46.3933 16.7322 46.6243 16.9282 46.8433L14.2062 51.3803L10.2932 55.2933C9.90225 55.6843 9.90225 56.3163 10.2932 56.7073L13.2932 59.7073C13.4882 59.9023 13.7442 60.0002 14.0002 60.0002C14.2562 60.0002 14.5122 59.9023 14.7072 59.7073L19.7072 54.7073C19.7542 54.6603 19.7962 54.6093 19.8322 54.5553L23.6732 48.7933L25.0002 48.9133V53.0003H24.0002C23.4472 53.0003 23.0002 53.4473 23.0002 54.0003V61.2042L10.7752 64.0252C10.3212 64.1302 10.0003 64.5342 10.0003 65.0002V66.0002H12.0002V65.7962L24.2252 62.9752C24.6792 62.8702 25.0002 62.4662 25.0002 62.0002V55.0003H26.0001H31.0001H40.0001C40.2831 55.0003 40.5541 54.8803 40.7431 54.6693L49.445 45.0003H51H56H69.9999V43.0004H57V35.6944ZM61.9999 8.61857L66.7639 11.0006L61.9999 13.3825V8.61857ZM44 19.0005C44 16.7945 45.794 15.0005 48 15.0005C50.206 15.0005 52 16.7945 52 19.0005C52 21.2065 50.206 23.0005 48 23.0005C45.794 23.0005 44 21.2065 44 19.0005ZM42.59 27.4805L41.0691 31.4344L38.2441 33.5644L37.3141 32.1694L42.59 27.4805ZM19.0002 29.0004C19.0002 26.7945 20.7942 25.0005 23.0002 25.0005C25.2062 25.0005 27.0001 26.7945 27.0001 29.0004C27.0001 31.2064 25.2062 33.0004 23.0002 33.0004C20.7942 33.0004 19.0002 31.2064 19.0002 29.0004ZM18.2232 53.3633L14.0002 57.5863L12.4142 56.0003L15.7072 52.7073C15.7652 52.6493 15.8152 52.5853 15.8572 52.5153L18.5422 48.0403C19.0512 48.2733 19.6022 48.4233 20.1802 48.4763L21.4062 48.5873L18.2232 53.3633ZM30.0001 53.0003H27.0001V48.0003C27.0001 47.4823 26.6051 47.0513 26.0911 47.0043L20.3622 46.4833C19.4172 46.3973 18.5882 45.8863 18.0862 45.0803C17.5852 44.2743 17.4932 43.3054 17.8342 42.4194L20.6872 35.0004H23.9172L29.8361 35.9864C30.0451 36.0204 30.2591 35.9884 30.4471 35.8944L35.6571 33.2894L36.5731 34.6634L30.7341 38.0004H26.0001C25.5412 38.0004 25.1422 38.3124 25.0302 38.7584L24.0302 42.7584C23.9622 43.0294 24.0102 43.3154 24.1642 43.5484C24.3162 43.7814 24.5602 43.9413 24.8362 43.9864L29.1651 44.7083C29.6481 44.7883 30.0001 45.2033 30.0001 45.6943V53.0003ZM50 43.0004H49C48.717 43.0004 48.446 43.1204 48.257 43.3314L39.5551 53.0003H32.0001V45.6943C32.0001 44.2203 30.9451 42.9764 29.4931 42.7354L26.2321 42.1914L26.7811 40.0004H31.0001C31.1741 40.0004 31.3451 39.9544 31.4961 39.8684L38.4961 35.8684C38.5111 35.8594 38.5201 35.8434 38.5351 35.8344C38.5561 35.8204 38.5811 35.8144 38.6021 35.7994L40.6911 34.2244C40.7901 34.8914 41.0181 35.5414 41.3881 36.1374C41.5471 36.3934 41.732 36.6244 41.928 36.8434L39.2061 41.3804L35.2931 45.2933C34.9021 45.6843 34.9021 46.3163 35.2931 46.7073L38.2931 49.7073C38.4881 49.9023 38.7441 50.0003 39.0001 50.0003C39.2561 50.0003 39.5121 49.9023 39.7071 49.7073L44.707 44.7073C44.754 44.6603 44.796 44.6093 44.832 44.5553L48.673 38.7934L50 38.9134V43.0004ZM43.542 38.0404C44.051 38.2734 44.602 38.4234 45.18 38.4764L46.406 38.5874L43.222 43.3634L39.0001 47.5863L37.4141 46.0003L40.7071 42.7074C40.7651 42.6494 40.8151 42.5854 40.8571 42.5154L43.542 38.0404ZM55 43.0004H52V38.0004C52 37.4824 51.605 37.0514 51.091 37.0044L45.362 36.4834C44.417 36.3974 43.588 35.8864 43.086 35.0804C42.585 34.2744 42.493 33.3054 42.834 32.4194L45.687 25.0005H59.9999V27.0005H51C50.523 27.0005 50.113 27.3375 50.02 27.8044L49.02 32.8044C48.967 33.0704 49.024 33.3454 49.177 33.5694C49.331 33.7924 49.569 33.9424 49.836 33.9874L54.165 34.7094C54.648 34.7884 55 35.2034 55 35.6944V43.0004Z" fill="#4277FF"/>
</g>
<defs>
<filter id="filter0_d" x="0" y="0" width="80" height="80" filterUnits="userSpaceOnUse" color-interpolation-filters="sRGB">
<feFlood flood-opacity="0" result="BackgroundImageFix"/>
<feColorMatrix in="SourceAlpha" type="matrix" values="0 0 0 0 0 0 0 0 0 0 0 0 0 0 0 0 0 0 127 0"/>
<feOffset dy="4"/>
<feGaussianBlur stdDeviation="5"/>
<feColorMatrix type="matrix" values="0 0 0 0 0.258333 0 0 0 0 0.466 0 0 0 0 1 0 0 0 0.2 0"/>
<feBlend mode="normal" in2="BackgroundImageFix" result="effect1_dropShadow"/>
<feBlend mode="normal" in="SourceGraphic" in2="effect1_dropShadow" result="shape"/>
</filter>
<clipPath id="clip0">
<rect width="60" height="60" fill="white" transform="translate(10 6)"/>
</clipPath>
</defs>
</svg>
