<svg width="197" height="57" viewBox="0 0 197 57" fill="none" xmlns="http://www.w3.org/2000/svg">
<path d="M76.2343 2.06494H68.1115V6.82696H70.9903C71.8801 6.80782 72.7678 6.92145 73.6241 7.16409C74.2818 7.35058 74.8959 7.6657 75.431 8.09121C75.8845 8.46317 76.2399 8.94067 76.4661 9.48188C76.6899 10.0357 76.8027 10.6282 76.7979 11.2255C76.8084 11.9294 76.6767 12.6281 76.4107 13.2799C76.1585 13.886 75.7711 14.4265 75.2782 14.8602C74.7449 15.3176 74.1224 15.6593 73.4503 15.8637C72.6497 16.1065 71.8163 16.2238 70.9797 16.2114H65.4776V0H76.2343V2.06494ZM68.1115 8.91297V14.1306H70.9797C71.4873 14.1424 71.9937 14.0757 72.481 13.9331C72.8523 13.8252 73.195 13.6363 73.4845 13.38C73.7339 13.1512 73.9246 12.8657 74.0403 12.5477C74.1604 12.2096 74.2193 11.8529 74.2141 11.4941C74.2201 11.1238 74.1631 10.755 74.0455 10.4037C73.9395 10.0867 73.7492 9.80446 73.4951 9.58724C73.2047 9.34239 72.8652 9.16275 72.4995 9.06047C72.0089 8.93132 71.5027 8.87104 70.9955 8.88136L68.1115 8.91297Z" fill="black"/>
<path d="M89.2002 4.74048V16.2109H86.7797V6.61052H83.5848C83.5142 7.85313 83.377 9.09106 83.1739 10.319C83.025 11.2131 82.8048 12.0938 82.5155 12.9528C82.3076 13.575 82.0161 14.166 81.6489 14.7096C81.3769 15.1108 81.0384 15.4626 80.6481 15.75C80.322 15.9857 79.9522 16.154 79.5603 16.2452C79.1927 16.3269 78.8174 16.3684 78.4409 16.369C77.7139 16.369 77.3505 16.2478 77.3505 16.0081V14.4857H77.98C78.2378 14.485 78.4938 14.4432 78.7385 14.362C79.0252 14.2629 79.283 14.0946 79.4892 13.8721C79.7715 13.5669 80.0044 13.2194 80.1792 12.8422C80.4423 12.282 80.6462 11.6959 80.7877 11.0933C80.998 10.2253 81.158 9.34592 81.267 8.45948C81.4022 7.42174 81.5067 6.18208 81.5804 4.74048H89.2002Z" fill="black"/>
<path d="M92.1481 16.2211V4.74008H94.5686V11.9305C94.5686 12.0964 94.5686 12.2729 94.5396 12.4573C94.5107 12.6416 94.4975 12.8418 94.4659 13.0367C94.5922 12.7375 94.7466 12.4509 94.9268 12.1807C94.9268 12.1807 95.0137 12.0569 95.1638 11.8568L95.7433 11.0666C95.9804 10.7453 96.2437 10.38 96.5335 9.97092C96.8285 9.56267 97.1313 9.14389 97.4369 8.71457C98.1656 7.71897 98.9873 6.59432 99.9022 5.3406C99.999 5.18244 100.121 5.04101 100.263 4.92182C100.403 4.79913 100.583 4.7317 100.769 4.73218H102.233V16.2105H99.8232V9.0201C99.8232 8.86909 99.8311 8.70052 99.8469 8.5144C99.86 8.32476 99.8837 8.13512 99.9127 7.94022C99.839 8.10352 99.7626 8.25628 99.6888 8.39587C99.6205 8.52219 99.5448 8.64443 99.4623 8.76198C99.4491 8.76198 99.3675 8.88577 99.22 9.09385C99.0725 9.30192 98.8829 9.56267 98.6458 9.884L97.8557 10.9797C97.5554 11.3906 97.2525 11.8067 96.9443 12.236C96.2174 13.2351 95.3991 14.3607 94.4896 15.6126C94.3907 15.7662 94.27 15.9046 94.1314 16.0235C93.9919 16.1492 93.8108 16.2186 93.623 16.2184L92.1481 16.2211Z" fill="black"/>
<path d="M104.493 5.94707C104.96 5.51583 105.502 5.17469 106.092 4.94093C106.814 4.66651 107.583 4.53501 108.355 4.55376C108.987 4.54708 109.616 4.63588 110.222 4.81714C110.712 4.96044 111.173 5.18867 111.584 5.49141C111.932 5.75012 112.218 6.083 112.421 6.46594C112.61 6.81844 112.708 7.21196 112.709 7.61166C112.707 7.84606 112.673 8.07914 112.608 8.30437C112.535 8.55146 112.423 8.78531 112.277 8.99707C112.109 9.23271 111.907 9.44143 111.676 9.61603C111.396 9.82729 111.082 9.99102 110.749 10.1007C111.377 10.292 111.939 10.6572 112.369 11.1542C112.77 11.648 112.978 12.2701 112.956 12.9057C112.965 13.4198 112.835 13.9267 112.579 14.3728C112.328 14.8059 111.987 15.1803 111.579 15.4711C111.142 15.7813 110.654 16.013 110.138 16.1559C109.587 16.3146 109.017 16.3944 108.444 16.3929C108.076 16.3917 107.709 16.3599 107.346 16.2981C106.961 16.2332 106.584 16.1272 106.221 15.9821C105.843 15.8334 105.482 15.6426 105.147 15.4131C104.795 15.1753 104.481 14.8879 104.212 14.5598L104.91 13.6695C104.955 13.5928 105.02 13.53 105.099 13.4881C105.177 13.4463 105.266 13.427 105.355 13.4325C105.522 13.4383 105.684 13.4974 105.816 13.6011C105.974 13.7117 106.161 13.8355 106.374 13.9724C106.62 14.1224 106.88 14.2469 107.151 14.3438C107.515 14.4662 107.897 14.5233 108.281 14.5124C108.619 14.5173 108.957 14.472 109.282 14.378C109.552 14.2985 109.804 14.168 110.025 13.9935C110.221 13.8386 110.379 13.6402 110.486 13.414C110.592 13.1876 110.646 12.94 110.644 12.6897C110.65 12.4515 110.597 12.2155 110.487 12.0036C110.378 11.7918 110.217 11.611 110.019 11.4782C109.603 11.1832 108.949 11.0357 108.057 11.0357H106.761V9.43693H108.057C108.69 9.47366 109.319 9.3254 109.869 9.01024C110.064 8.89732 110.226 8.7357 110.339 8.54128C110.452 8.34685 110.512 8.12633 110.515 7.90139C110.514 7.69389 110.463 7.48957 110.367 7.30604C110.27 7.1225 110.13 6.96526 109.959 6.84785C109.587 6.56339 109.029 6.42116 108.286 6.42116C107.924 6.41348 107.562 6.45693 107.212 6.55022C106.954 6.62126 106.704 6.71559 106.464 6.83204C106.261 6.93213 106.09 7.02431 105.953 7.09543C105.844 7.16862 105.717 7.21136 105.587 7.21922C105.487 7.22273 105.388 7.20003 105.299 7.15337C105.191 7.08158 105.1 6.985 105.036 6.87155L104.493 5.94707Z" fill="black"/>
<path d="M122.211 5.38537C122.332 5.18843 122.5 5.02531 122.701 4.91128C122.897 4.79526 123.119 4.73343 123.347 4.73218H125.238L122.422 9.04117C122.266 9.29968 122.077 9.53619 121.858 9.74441C121.651 9.93341 121.406 10.0762 121.139 10.1632C121.477 10.2516 121.79 10.4145 122.056 10.6399C122.319 10.8781 122.541 11.1574 122.714 11.4669L125.562 16.2079H123.894C123.549 16.2266 123.206 16.153 122.899 15.9945C122.649 15.8386 122.442 15.6221 122.298 15.3651L120.349 12.0095C120.211 11.7424 119.995 11.5231 119.73 11.38C119.463 11.2419 119.165 11.1722 118.864 11.1772H117.734V16.2211H115.313V4.74008H117.734V9.56004H118.714C118.988 9.57001 119.26 9.50828 119.504 9.38093C119.727 9.24489 119.913 9.05466 120.044 8.82782L122.211 5.38537Z" fill="black"/>
<path d="M127.261 16.2211V4.74008H129.679V11.9305C129.679 12.0964 129.679 12.2729 129.652 12.4573C129.626 12.6416 129.608 12.8418 129.579 13.0367C129.704 12.737 129.858 12.4503 130.04 12.1807C130.04 12.1807 130.127 12.0569 130.277 11.8568L130.856 11.0666C131.093 10.7453 131.357 10.38 131.646 9.97092C131.944 9.56267 132.244 9.14389 132.552 8.71457C133.281 7.71897 134.103 6.59432 135.018 5.3406C135.115 5.18224 135.238 5.0408 135.381 4.92182C135.521 4.79913 135.701 4.7317 135.887 4.73218H137.349V16.2105H134.931V9.0201C134.931 8.86997 134.931 8.7014 134.952 8.5144C134.973 8.32739 134.991 8.13512 135.02 7.94022C134.946 8.10352 134.87 8.25628 134.794 8.39587C134.727 8.52267 134.652 8.64497 134.57 8.76198C134.554 8.76198 134.475 8.88577 134.328 9.09385C134.18 9.30192 133.99 9.56267 133.753 9.884L132.963 10.9797C132.663 11.3906 132.36 11.8067 132.052 12.236C131.323 13.2351 130.505 14.3607 129.597 15.6126C129.497 15.7656 129.377 15.9039 129.239 16.0235C129.099 16.1483 128.918 16.2176 128.731 16.2184L127.261 16.2211Z" fill="black"/>
<path d="M145.108 4.5549C145.776 4.5479 146.44 4.66396 147.067 4.8973C147.651 5.11572 148.181 5.4591 148.618 5.90344C149.069 6.36852 149.416 6.9231 149.638 7.53116C149.893 8.23217 150.017 8.97406 150.004 9.7199C150.026 9.97738 149.983 10.2363 149.88 10.4732C149.828 10.5415 149.759 10.5952 149.68 10.6289C149.601 10.6626 149.515 10.6752 149.43 10.6655H142.055C142.072 11.242 142.175 11.8129 142.36 12.359C142.509 12.7968 142.745 13.2 143.053 13.5443C143.337 13.8584 143.692 14.0996 144.088 14.2475C144.518 14.4076 144.973 14.4862 145.432 14.4793C145.847 14.487 146.26 14.4319 146.659 14.316C146.97 14.2235 147.272 14.1046 147.562 13.9604C147.826 13.8287 148.034 13.7102 148.215 13.6022C148.362 13.5029 148.534 13.4464 148.711 13.4389C148.798 13.4357 148.886 13.4545 148.964 13.4936C149.043 13.5327 149.111 13.5909 149.161 13.6628L149.846 14.553C149.568 14.8838 149.242 15.1714 148.879 15.4064C148.52 15.6402 148.135 15.8312 147.731 15.9753C147.326 16.1225 146.908 16.2284 146.482 16.2914C146.068 16.3535 145.65 16.3852 145.231 16.3862C144.475 16.3919 143.724 16.2542 143.019 15.9806C142.351 15.7233 141.747 15.3223 141.252 14.8059C140.73 14.2538 140.332 13.5976 140.082 12.8805C139.787 12.0343 139.643 11.1427 139.658 10.2467C139.652 9.48761 139.78 8.73342 140.035 8.01843C140.273 7.35286 140.641 6.74133 141.117 6.2195C141.597 5.70115 142.179 5.2885 142.827 5.00793C143.547 4.69919 144.324 4.54487 145.108 4.5549ZM145.152 6.32222C144.774 6.30111 144.396 6.35699 144.04 6.48647C143.684 6.61596 143.358 6.81635 143.082 7.0755C142.544 7.65583 142.208 8.39524 142.126 9.18259H147.831C147.834 8.79819 147.775 8.41578 147.657 8.05003C147.549 7.7155 147.375 7.40577 147.146 7.13872C146.914 6.87636 146.628 6.66858 146.306 6.5303C145.94 6.38204 145.547 6.31119 145.152 6.32222Z" fill="black"/>
<path d="M75.3563 25.514H68.121V39.6605H65.4872V23.4543H75.3668L75.3563 25.514Z" fill="black"/>
<path d="M78.2739 28.001C79.0611 27.9896 79.843 28.1319 80.5758 28.4197C81.2391 28.6814 81.8376 29.084 82.33 29.5997C82.829 30.1335 83.2103 30.7661 83.4494 31.4566C83.9762 33.0498 83.9762 34.7703 83.4494 36.3635C83.2097 37.0552 82.8285 37.6894 82.33 38.2256C81.8387 38.7446 81.2401 39.15 80.5758 39.4135C79.0877 39.9684 77.4494 39.9684 75.9613 39.4135C75.2947 39.1501 74.6935 38.7447 74.1993 38.2256C73.6989 37.6899 73.3159 37.0557 73.0746 36.3635C72.5478 34.7703 72.5478 33.0498 73.0746 31.4566C73.3155 30.7658 73.6987 30.1332 74.1993 29.5997C74.6946 29.0838 75.2957 28.6813 75.9613 28.4197C76.6976 28.1311 77.4831 27.9889 78.2739 28.001ZM78.2739 37.9385C79.3098 37.9385 80.0807 37.5917 80.5864 36.8981C81.0921 36.2045 81.3449 35.2125 81.3449 33.9219C81.3449 32.6313 81.0921 31.6348 80.5864 30.9324C80.0807 30.2301 79.3098 29.8789 78.2739 29.8789C77.2203 29.8789 76.4398 30.2301 75.9324 30.9324C75.4249 31.6348 75.1703 32.6313 75.1685 33.9219C75.1685 35.2125 75.4231 36.2045 75.9324 36.8981C76.4416 37.5917 77.2221 37.935 78.2739 37.928V37.9385Z" fill="black"/>
<path d="M86.1627 43.4749V28.1827H87.6245C87.7678 28.1702 87.9107 28.21 88.0269 28.2947C88.1431 28.3795 88.2247 28.5034 88.2566 28.6436L88.4463 29.8473C88.683 29.5746 88.9392 29.3193 89.2127 29.0835C89.4801 28.8523 89.7725 28.6518 90.0845 28.4856C90.4018 28.3191 90.7378 28.1909 91.0854 28.1037C91.4595 28.0121 91.8434 27.967 92.2285 27.9694C92.8361 27.961 93.4374 28.0936 93.9853 28.3565C94.524 28.6233 94.9909 29.0153 95.347 29.4996C95.7513 30.0537 96.0471 30.6793 96.2188 31.3433C96.4377 32.1635 96.5423 33.0099 96.5296 33.8587C96.5358 34.6616 96.4203 35.4608 96.1872 36.2291C95.9798 36.9187 95.6458 37.5636 95.2021 38.1308C94.7742 38.6776 94.2249 39.1174 93.5977 39.4155C92.9706 39.7135 92.2827 39.8616 91.5885 39.8481C91.0318 39.8721 90.4765 39.776 89.9603 39.5665C89.444 39.357 88.9789 39.0389 88.5964 38.6338V43.4933L86.1627 43.4749ZM91.4172 29.9158C90.8588 29.8993 90.3066 30.0369 89.8211 30.3135C89.3409 30.6142 88.9211 31.0018 88.5832 31.4566V36.7796C88.8699 37.1735 89.2513 37.4888 89.6921 37.6962C90.113 37.8763 90.567 37.966 91.0248 37.9596C91.45 37.9793 91.8736 37.8956 92.2593 37.7158C92.6451 37.536 92.9816 37.2654 93.2399 36.9271C93.7666 36.237 94.03 35.209 94.03 33.8429C94.0403 33.2356 93.9793 32.6291 93.8483 32.036C93.7528 31.5994 93.5739 31.1854 93.3215 30.8166C93.1151 30.5171 92.831 30.2795 92.4998 30.1291C92.1576 29.984 91.789 29.9113 91.4172 29.9158Z" fill="black"/>
<path d="M98.8538 39.6715V28.1827H101.274V35.3731C101.274 35.5491 101.264 35.7249 101.245 35.8999C101.227 36.0921 101.203 36.2844 101.174 36.4793C101.299 36.1796 101.454 35.8929 101.635 35.6233C101.635 35.6101 101.722 35.4995 101.872 35.2967L102.452 34.5065L103.242 33.4109L104.148 32.1545L106.613 28.7779C106.71 28.6212 106.831 28.4807 106.971 28.3618C107.112 28.2387 107.293 28.1712 107.48 28.1721H108.941V39.6505H106.521V32.46C106.521 32.3099 106.521 32.1413 106.545 31.9517C106.568 31.7621 106.582 31.5751 106.613 31.3775C106.537 31.5435 106.463 31.6962 106.387 31.8332C106.32 31.9601 106.246 32.0824 106.163 32.1993C106.147 32.2151 106.065 32.3257 105.92 32.5338C105.776 32.7419 105.583 33.0026 105.346 33.3239L104.54 34.4196C104.243 34.8305 103.937 35.2467 103.629 35.676L101.177 39.0499C101.078 39.2046 100.957 39.3432 100.816 39.4608C100.678 39.5877 100.498 39.6582 100.31 39.6584L98.8538 39.6715Z" fill="black"/>
<path d="M111.202 29.3963C111.667 28.9651 112.208 28.6239 112.798 28.3901C113.52 28.1137 114.288 27.9813 115.061 28.0003C115.693 27.9921 116.323 28.0809 116.928 28.2637C117.418 28.4059 117.879 28.6342 118.29 28.938C118.638 29.1963 118.925 29.5281 119.13 29.9099C119.28 30.19 119.374 30.497 119.406 30.8134C119.437 31.1297 119.406 31.4492 119.314 31.7536C119.243 32.0013 119.131 32.2354 118.982 32.4463C118.814 32.6869 118.609 32.8993 118.374 33.0758C118.093 33.2866 117.78 33.4502 117.447 33.5604C118.075 33.7517 118.637 34.117 119.067 34.6139C119.47 35.1049 119.682 35.725 119.665 36.3602C119.672 36.8741 119.542 37.3807 119.288 37.8272C119.034 38.2599 118.692 38.6341 118.284 38.9256C117.847 39.2352 117.36 39.4669 116.844 39.6104C116.293 39.7696 115.723 39.8494 115.15 39.8474C114.783 39.8461 114.416 39.8144 114.054 39.7526C113.669 39.6876 113.291 39.5817 112.927 39.4365C112.55 39.2879 112.19 39.0971 111.855 38.8676C111.503 38.6312 111.188 38.3436 110.92 38.0143L111.618 37.124C111.665 37.0488 111.732 36.9882 111.812 36.9487C111.891 36.9092 111.98 36.8924 112.069 36.9001C112.236 36.906 112.398 36.965 112.529 37.0687C112.687 37.1793 112.872 37.3031 113.085 37.4401C113.331 37.5897 113.591 37.7141 113.862 37.8114C114.227 37.9325 114.61 37.9895 114.995 37.98C115.333 37.9849 115.67 37.9397 115.996 37.8457C116.265 37.7661 116.518 37.6356 116.738 37.4611C116.938 37.3041 117.098 37.1031 117.207 36.8738C117.314 36.6473 117.368 36.3997 117.365 36.1495C117.372 35.9113 117.318 35.6752 117.209 35.4634C117.1 35.2515 116.939 35.0708 116.741 34.9379C116.325 34.6429 115.669 34.4928 114.776 34.4928H113.483V32.8967H114.776C115.409 32.9343 116.039 32.785 116.588 32.4674C116.776 32.3605 116.934 32.2073 117.047 32.0225C117.159 31.8376 117.222 31.6271 117.231 31.4109C117.239 31.1947 117.193 30.9799 117.095 30.7868C116.997 30.5938 116.852 30.4288 116.673 30.3076C116.3 30.0231 115.744 29.8809 115.003 29.8809C114.639 29.8733 114.277 29.9167 113.925 30.01C113.668 30.0814 113.418 30.1757 113.177 30.2918C112.975 30.3919 112.806 30.4841 112.666 30.5552C112.558 30.6287 112.431 30.6715 112.3 30.679C112.201 30.6825 112.102 30.6598 112.013 30.6131C111.904 30.5413 111.814 30.4447 111.75 30.3313L111.202 29.3963Z" fill="black"/>
<path d="M126.978 28.0009C127.765 27.9896 128.547 28.1319 129.28 28.4197C129.944 28.6807 130.542 29.0834 131.034 29.5997C131.533 30.1335 131.914 30.7661 132.153 31.4566C132.68 33.0498 132.68 34.7702 132.153 36.3634C131.914 37.0552 131.533 37.6894 131.034 38.2256C130.543 38.7451 129.945 39.1506 129.28 39.4134C127.792 39.9684 126.154 39.9684 124.665 39.4134C123.999 39.15 123.398 38.7447 122.903 38.2256C122.403 37.6899 122.02 37.0556 121.779 36.3634C121.252 34.7702 121.252 33.0498 121.779 31.4566C122.02 30.7658 122.403 30.1332 122.903 29.5997C123.399 29.0838 124 28.6812 124.665 28.4197C125.402 28.1313 126.187 27.989 126.978 28.0009ZM126.978 37.9385C128.012 37.9385 128.783 37.5917 129.29 36.8981C129.798 36.2045 130.051 35.2124 130.049 33.9218C130.049 32.6313 129.796 31.6348 129.29 30.9324C128.785 30.2301 128.014 29.8789 126.978 29.8789C125.924 29.8789 125.144 30.2301 124.636 30.9324C124.129 31.6348 123.874 32.6313 123.873 33.9218C123.873 35.2124 124.127 36.2045 124.636 36.8981C125.146 37.5917 125.926 37.935 126.978 37.9279V37.9385Z" fill="black"/>
<path d="M144.657 28.1836V39.6619H142.25V34.4522H137.288V39.6619H134.867V28.1836H137.288V32.6295H142.25V28.1836H144.657Z" fill="black"/>
<path d="M146.424 28.1836H157.318V30.0062H153.088V39.6619H150.657V30.0062H146.424V28.1836Z" fill="black"/>
<path d="M161.382 28.1836V32.5505H163.61C164.293 32.5333 164.974 32.6303 165.625 32.8376C166.113 32.9983 166.562 33.2604 166.942 33.6067C167.27 33.9169 167.52 34.3005 167.671 34.7261C167.821 35.149 167.898 35.5944 167.898 36.043C167.904 36.5435 167.808 37.04 167.616 37.5022C167.429 37.9394 167.147 38.3292 166.789 38.6426C166.399 38.9813 165.943 39.2367 165.451 39.3933C164.862 39.5769 164.248 39.6658 163.631 39.6567H159.085V28.1836H161.382ZM161.382 34.2941V37.9052H163.642C163.957 37.9119 164.272 37.8647 164.571 37.7656C164.816 37.6837 165.041 37.5539 165.235 37.3837C165.41 37.2236 165.545 37.0252 165.63 36.8042C165.717 36.5664 165.761 36.3148 165.759 36.0615C165.761 35.8288 165.72 35.5978 165.641 35.3793C165.562 35.1662 165.435 34.9742 165.269 34.8183C165.08 34.6441 164.855 34.5129 164.611 34.4337C164.29 34.3338 163.956 34.2867 163.62 34.2941H161.382ZM172.612 28.1836V39.6619H170.192V28.1836H172.612Z" fill="black"/>
<path d="M70.364 47.8069C70.3902 47.7618 70.4251 47.7224 70.4667 47.691C70.5054 47.6575 70.5552 47.6397 70.6063 47.6409H70.9935V54.9525H70.4667V48.95C70.4667 48.8393 70.4667 48.7261 70.4667 48.6102C70.4702 48.4904 70.4798 48.3708 70.4957 48.252C70.4483 48.3573 70.4009 48.4548 70.3535 48.5443C70.3034 48.6313 70.256 48.7129 70.2086 48.7893L65.9944 54.7866C65.9659 54.8314 65.9303 54.8715 65.8891 54.9051C65.8479 54.9355 65.7981 54.9521 65.7469 54.9525H65.3571V47.6409H65.8838V53.6461C65.8838 53.7567 65.8838 53.8674 65.8838 53.9833C65.8838 54.0991 65.868 54.2203 65.8522 54.3441C65.8952 54.2441 65.9436 54.1465 65.9971 54.0517C66.0445 53.9648 66.0919 53.8805 66.1419 53.8015L70.364 47.8069Z" fill="black"/>
<path d="M76.8813 49.8125V54.9538H76.3809V52.3752H73.3335V54.9538H72.8357V49.8125H73.3335V51.9986H76.3809V49.8125H76.8813Z" fill="black"/>
<path d="M78.5781 49.8126H80.2875C80.554 49.8071 80.82 49.839 81.0776 49.9075C81.2689 49.9594 81.448 50.0489 81.6044 50.1708C81.7331 50.2704 81.8345 50.4009 81.8994 50.5501C81.9623 50.6928 81.9946 50.8472 81.9942 51.0031C81.9926 51.1261 81.9749 51.2483 81.9415 51.3666C81.9055 51.4976 81.8457 51.6208 81.7651 51.7301C81.6743 51.8537 81.5618 51.9599 81.4332 52.0435C81.2718 52.144 81.0932 52.2137 80.9064 52.2489C81.2863 52.2687 81.6483 52.4162 81.9336 52.6677C82.0425 52.7767 82.1281 52.9067 82.1852 53.0497C82.2422 53.1928 82.2695 53.346 82.2655 53.5C82.2688 53.7134 82.2218 53.9245 82.1285 54.1163C82.0372 54.2966 81.9056 54.4534 81.744 54.5746C81.5676 54.7051 81.3684 54.8016 81.1566 54.8591C80.9096 54.9269 80.6542 54.9597 80.3981 54.9565H78.5754L78.5781 49.8126ZM79.0522 52.1225H80.2717C80.45 52.1258 80.6278 52.1009 80.7984 52.0488C80.9476 52.0048 81.0864 51.9314 81.2067 51.8328C81.3183 51.7434 81.4083 51.63 81.4701 51.5009C81.5366 51.3668 81.57 51.2187 81.5675 51.069C81.5681 50.9525 81.5457 50.8371 81.5017 50.7292C81.4551 50.6161 81.3808 50.5164 81.2857 50.4395C81.168 50.3448 81.0329 50.2741 80.888 50.2314C80.6903 50.1751 80.4851 50.1493 80.2796 50.155H79.0601L79.0522 52.1225ZM79.0522 52.4544V54.6036H80.3954C80.5949 54.6061 80.7937 54.5795 80.9854 54.5246C81.1472 54.4817 81.2987 54.4064 81.4306 54.3033C81.5482 54.2085 81.6435 54.0889 81.7097 53.953C81.775 53.8082 81.8083 53.651 81.8072 53.4921C81.8088 53.3472 81.7829 53.2033 81.7308 53.0681C81.6772 52.9393 81.592 52.8261 81.4832 52.7388C81.3549 52.6403 81.208 52.5686 81.0513 52.5281C80.8422 52.4749 80.6269 52.4501 80.4112 52.4544H79.0522Z" fill="black"/>
<path d="M85.6425 49.7302C85.9182 49.7281 86.1919 49.779 86.4484 49.8803C86.6917 49.9781 86.9116 50.1262 87.0937 50.3149C87.2835 50.5189 87.4303 50.759 87.5257 51.0208C87.6359 51.3291 87.6894 51.6548 87.6837 51.9821C87.6894 52.0359 87.6783 52.0902 87.6521 52.1375C87.6393 52.1526 87.623 52.1643 87.6047 52.1717C87.5863 52.179 87.5664 52.1818 87.5467 52.1797H83.8066V52.2771C83.8008 52.6208 83.8461 52.9634 83.941 53.2938C84.0168 53.563 84.1468 53.814 84.3229 54.0313C84.4843 54.2265 84.6902 54.3801 84.9234 54.479C85.1737 54.5827 85.4427 54.6338 85.7136 54.6292C85.9405 54.6333 86.1668 54.604 86.3852 54.5422C86.551 54.4953 86.7116 54.4318 86.8646 54.3526C86.9712 54.2964 87.0733 54.2322 87.1701 54.1603C87.2164 54.1172 87.2739 54.088 87.336 54.076C87.356 54.0748 87.376 54.0788 87.394 54.0875C87.412 54.0963 87.4274 54.1096 87.4388 54.1261L87.5731 54.292C87.4798 54.4048 87.3696 54.5025 87.2465 54.5817C87.1035 54.6747 86.9507 54.7516 86.7908 54.8109C86.6199 54.8768 86.4437 54.9279 86.264 54.9636C86.0743 55.0027 85.881 55.0221 85.6872 55.0216C85.3577 55.0248 85.0308 54.9621 84.7259 54.8372C84.4415 54.7203 84.1875 54.5401 83.9831 54.3105C83.7616 54.0576 83.5948 53.7617 83.4932 53.4413C83.3769 53.0644 83.3209 52.6715 83.3273 52.2771C83.3244 51.9304 83.3769 51.5854 83.4827 51.2552C83.5801 50.9592 83.735 50.6853 83.9383 50.4492C84.1408 50.2231 84.3896 50.0435 84.6679 49.9225C84.9759 49.7913 85.3078 49.7258 85.6425 49.7302ZM85.6425 50.0963C85.3989 50.0928 85.1568 50.1348 84.9287 50.2201C84.7264 50.2982 84.5425 50.4175 84.3887 50.5704C84.2318 50.7322 84.106 50.9215 84.0174 51.1288C83.9187 51.3613 83.8548 51.6072 83.8277 51.8583H87.2517C87.2552 51.6069 87.216 51.3566 87.1358 51.1182C87.0664 50.9119 86.9542 50.7225 86.8066 50.5625C86.6662 50.4108 86.4946 50.2913 86.3036 50.2122C86.0951 50.1295 85.8719 50.0901 85.6477 50.0963H85.6425Z" fill="black"/>
<path d="M92.4765 50.4987C92.4612 50.515 92.4445 50.53 92.4265 50.5434C92.4079 50.5562 92.3858 50.5626 92.3633 50.5619C92.3106 50.5529 92.2619 50.5281 92.2237 50.4907C92.1492 50.433 92.0699 50.3819 91.9866 50.338C91.8663 50.275 91.7402 50.2239 91.61 50.1852C91.1678 50.0697 90.7 50.1012 90.2773 50.2748C90.0514 50.3774 89.8529 50.5316 89.6978 50.7252C89.5308 50.9364 89.4081 51.1792 89.337 51.4389C89.2535 51.7453 89.2127 52.0617 89.2158 52.3792C89.2107 52.7041 89.2533 53.028 89.3422 53.3406C89.4155 53.5971 89.538 53.8369 89.7031 54.0465C89.8526 54.2347 90.045 54.3846 90.2641 54.4837C90.4954 54.5859 90.746 54.6371 90.9989 54.6338C91.2097 54.6386 91.4197 54.6083 91.6205 54.5443C91.7652 54.4972 91.904 54.4336 92.034 54.3546C92.1277 54.299 92.2159 54.2346 92.2974 54.1623C92.3376 54.1162 92.3925 54.0855 92.4528 54.0754C92.473 54.0751 92.4931 54.0795 92.5113 54.0882C92.5296 54.0968 92.5456 54.1096 92.5582 54.1255L92.6846 54.2914C92.5995 54.4014 92.4993 54.499 92.387 54.5811C92.2599 54.6734 92.123 54.7511 91.9787 54.8129C91.8193 54.8806 91.6534 54.9318 91.4836 54.9657C91.3007 55.0032 91.1145 55.0218 90.9278 55.021C90.6201 55.0243 90.3151 54.9633 90.0323 54.8419C89.7627 54.7215 89.524 54.5414 89.3343 54.3151C89.1302 54.0711 88.9762 53.7891 88.8813 53.4854C88.7665 53.1245 88.7114 52.7473 88.718 52.3687C88.7143 52.0046 88.7667 51.6422 88.8734 51.2941C88.9675 50.9876 89.1214 50.703 89.3264 50.4565C89.5267 50.2224 89.7769 50.0361 90.0586 49.9113C90.3713 49.7774 90.7089 49.7119 91.049 49.719C91.3526 49.713 91.6544 49.7676 91.9366 49.8797C92.1871 49.9804 92.4167 50.1269 92.6135 50.3116L92.4765 50.4987Z" fill="black"/>
<path d="M93.2119 49.8125H98.0055V50.1891H95.8562V54.9538H95.3611V50.1891H93.2119V49.8125Z" fill="black"/>
<path d="M99.0331 54.9538V49.8125H99.5283V53.9582C99.5283 54.0056 99.5283 54.0556 99.5283 54.111C99.5259 54.1648 99.5206 54.2184 99.5125 54.2716C99.5332 54.2284 99.5561 54.1862 99.581 54.1452L99.6468 54.0398C99.6468 54.0398 99.6969 53.9687 99.7891 53.8476C99.8813 53.7264 99.9998 53.571 100.145 53.3761L100.64 52.7176C100.822 52.4727 101.009 52.2225 101.203 51.967L102.726 49.9416C102.747 49.9069 102.775 49.8765 102.808 49.852C102.837 49.8268 102.874 49.8128 102.913 49.8125H103.197V54.9538H102.707V50.8107C102.707 50.7106 102.707 50.6053 102.721 50.4947C102.703 50.5397 102.681 50.583 102.655 50.6237C102.631 50.6632 102.607 50.6975 102.586 50.7264L102.444 50.9214C102.354 51.0425 102.236 51.2005 102.088 51.3928L101.593 52.0513C101.409 52.2936 101.222 52.5438 101.032 52.7993L99.5072 54.83C99.4859 54.8624 99.4591 54.8909 99.4282 54.9143C99.3987 54.9391 99.3615 54.9531 99.3229 54.9538H99.0331Z" fill="black"/>
<path d="M104.873 49.8125H105.371V54.5771H108.424V49.8125H108.921V54.5771H109.862V56.6289C109.864 56.6732 109.848 56.7165 109.819 56.7501C109.805 56.7649 109.787 56.7765 109.768 56.7842C109.748 56.7919 109.727 56.7956 109.706 56.7948H109.417V54.9512H104.873V49.8125Z" fill="black"/>
<path d="M110.945 54.9538V49.8125H111.44V53.9582C111.44 54.0056 111.44 54.0556 111.44 54.111C111.438 54.1648 111.433 54.2184 111.424 54.2716C111.445 54.2284 111.468 54.1862 111.493 54.1452L111.559 54.0398C111.559 54.0398 111.609 53.9687 111.701 53.8476C111.793 53.7264 111.912 53.571 112.057 53.3761L112.552 52.7176C112.733 52.4727 112.92 52.2225 113.115 51.967L114.638 49.9416C114.659 49.9069 114.687 49.8765 114.719 49.852C114.749 49.8268 114.786 49.8128 114.825 49.8125H115.099V54.9538H114.609V50.8107C114.609 50.7106 114.609 50.6053 114.609 50.4947C114.591 50.5397 114.569 50.583 114.543 50.6237C114.519 50.6632 114.496 50.6975 114.474 50.7264L114.332 50.9214C114.24 51.0425 114.124 51.2005 113.977 51.3928L113.481 52.0513C113.297 52.2936 113.11 52.5438 112.92 52.7993L111.411 54.83C111.39 54.8624 111.363 54.8909 111.332 54.9143C111.303 54.9391 111.265 54.9531 111.227 54.9538H110.945Z" fill="black"/>
<path d="M118.834 49.7303C119.173 49.7252 119.51 49.7888 119.824 49.9173C120.106 50.036 120.358 50.216 120.562 50.4441C120.767 50.6897 120.922 50.9734 121.017 51.279C121.228 51.9916 121.228 52.7499 121.017 53.4625C120.922 53.7673 120.767 54.0501 120.562 54.2948C120.359 54.5246 120.107 54.7048 119.824 54.8215C119.188 55.071 118.482 55.071 117.846 54.8215C117.562 54.7049 117.309 54.5247 117.106 54.2948C116.897 54.0518 116.74 53.7685 116.645 53.4625C116.438 52.7494 116.438 51.9921 116.645 51.279C116.74 50.9723 116.897 50.6883 117.106 50.4441C117.311 50.2159 117.563 50.036 117.846 49.9173C118.159 49.7885 118.495 49.7249 118.834 49.7303ZM118.834 54.6345C119.11 54.6408 119.384 54.5869 119.637 54.4765C119.863 54.3748 120.06 54.2192 120.211 54.0235C120.373 53.8119 120.49 53.5701 120.556 53.3123C120.707 52.7008 120.707 52.0617 120.556 51.4502C120.489 51.1913 120.372 50.9479 120.211 50.7338C120.06 50.5373 119.863 50.3809 119.637 50.2781C119.383 50.1721 119.109 50.1175 118.834 50.1175C118.558 50.1175 118.285 50.1721 118.03 50.2781C117.805 50.3815 117.608 50.5379 117.456 50.7338C117.296 50.9479 117.179 51.1913 117.111 51.4502C116.957 52.0613 116.957 52.7013 117.111 53.3123C117.178 53.5701 117.295 53.8119 117.456 54.0235C117.608 54.2186 117.805 54.374 118.03 54.4765C118.284 54.5867 118.558 54.6406 118.834 54.6345Z" fill="black"/>
<path d="M126.612 49.8125V54.9538H126.114V52.3752H123.062V54.9538H122.567V49.8125H123.062V51.9986H126.114V49.8125H126.612Z" fill="black"/>
<path d="M132.351 49.8125V54.9538H131.856V52.3752H128.796V54.9538H128.298V49.8125H128.796V51.9986H131.848V49.8125H132.351Z" fill="black"/>
<path d="M137.223 54.9519C137.179 54.9566 137.134 54.9442 137.099 54.9173C137.063 54.8904 137.039 54.851 137.031 54.807L136.96 54.1512C136.826 54.2824 136.685 54.4064 136.538 54.5226C136.403 54.6309 136.256 54.7245 136.101 54.8018C135.945 54.8796 135.779 54.938 135.609 54.9756C135.419 55.017 135.226 55.0373 135.032 55.0362C134.858 55.0365 134.684 55.0098 134.518 54.9572C134.358 54.9075 134.208 54.827 134.078 54.7201C133.945 54.6081 133.839 54.4677 133.768 54.3092C133.686 54.1188 133.647 53.9131 133.652 53.7061C133.651 53.4906 133.716 53.2801 133.839 53.1029C133.989 52.8945 134.189 52.727 134.421 52.6157C134.745 52.4591 135.089 52.3483 135.443 52.2864C135.936 52.1959 136.437 52.1475 136.939 52.1416V51.6148C136.964 51.2243 136.856 50.8367 136.631 50.5165C136.519 50.3856 136.379 50.2826 136.221 50.2158C136.062 50.149 135.891 50.1203 135.719 50.1319C135.503 50.1263 135.288 50.1611 135.085 50.2347C134.93 50.2934 134.782 50.3694 134.645 50.4612C134.542 50.5315 134.443 50.608 134.35 50.6903C134.3 50.7459 134.232 50.7822 134.157 50.793C134.125 50.7948 134.092 50.7855 134.065 50.7667C134.041 50.7486 134.019 50.7263 134.002 50.7009L133.915 50.5507C134.16 50.2992 134.447 50.0924 134.763 49.9397C135.08 49.7985 135.423 49.7284 135.769 49.7342C136.017 49.7295 136.263 49.7743 136.494 49.8659C136.697 49.9466 136.878 50.0759 137.02 50.2426C137.154 50.418 137.25 50.6187 137.302 50.8325C137.375 51.0895 137.41 51.3557 137.405 51.6227V54.9703L137.223 54.9519ZM135.156 54.6885C135.341 54.6901 135.526 54.6689 135.706 54.6253C135.868 54.5838 136.023 54.5228 136.17 54.4436C136.313 54.3714 136.447 54.2831 136.57 54.1802C136.694 54.0748 136.818 53.9589 136.939 53.8351V52.4971C136.514 52.5045 136.091 52.5414 135.672 52.6078C135.371 52.6529 135.076 52.7351 134.795 52.8527C134.599 52.9324 134.425 53.059 134.289 53.2214C134.181 53.3618 134.124 53.5344 134.126 53.7113C134.122 53.8643 134.152 54.0162 134.213 54.1565C134.264 54.2759 134.341 54.3822 134.439 54.4673C134.536 54.5487 134.648 54.6096 134.769 54.6464C134.891 54.6743 135.017 54.6849 135.143 54.678L135.156 54.6885Z" fill="black"/>
<path d="M142.268 54.954H141.789V52.6441H141.117C141.051 52.6482 140.985 52.6561 140.919 52.6679C140.868 52.6786 140.818 52.6963 140.772 52.7205C140.728 52.7429 140.688 52.7723 140.653 52.8074C140.613 52.848 140.576 52.8921 140.543 52.9391L139.039 54.7828C139.009 54.8377 138.965 54.8839 138.912 54.9172C138.847 54.949 138.774 54.9635 138.702 54.9593H138.362L140.103 52.8522C140.188 52.7103 140.322 52.6038 140.48 52.552C140.234 52.5386 139.991 52.488 139.761 52.4018C139.581 52.3344 139.415 52.2334 139.273 52.1042C139.156 51.9915 139.066 51.8537 139.01 51.7012C138.954 51.5486 138.925 51.3872 138.926 51.2245C138.927 51.0536 138.958 50.8842 139.018 50.7241C139.084 50.5532 139.187 50.3993 139.321 50.2737C139.475 50.1271 139.658 50.0133 139.858 49.9392C140.12 49.8486 140.397 49.8058 140.674 49.8127H142.271L142.268 54.954ZM139.4 51.2666C139.397 51.4209 139.432 51.5734 139.5 51.7118C139.569 51.8443 139.669 51.9582 139.792 52.0436C139.934 52.139 140.092 52.2086 140.258 52.2491C140.459 52.2996 140.665 52.3244 140.872 52.3228H141.789V50.1578H140.688C140.48 50.1517 140.273 50.1866 140.079 50.2605C139.93 50.3196 139.794 50.4093 139.682 50.5239C139.584 50.6249 139.51 50.7464 139.466 50.8795C139.423 51.0032 139.4 51.1331 139.4 51.264V51.2666Z" fill="black"/>
<path d="M150.815 49.8125V54.9538H150.319V50.1891H147.264V54.9538H146.769V49.8125H150.815Z" fill="black"/>
<path d="M156.698 49.8125V54.9538H156.203V50.2128H154.119C154.094 50.8054 154.038 51.3962 153.951 51.9828C153.886 52.4183 153.79 52.8487 153.664 53.2708C153.573 53.5751 153.448 53.8684 153.292 54.1452C153.178 54.3423 153.033 54.52 152.863 54.672C152.73 54.7919 152.573 54.8817 152.402 54.9354C152.255 54.9836 152.101 55.0085 151.947 55.0091C151.873 55.0097 151.8 55.0027 151.728 54.988C151.667 54.9749 151.636 54.9538 151.636 54.9248V54.6114H151.862C151.992 54.6096 152.121 54.5837 152.242 54.535C152.387 54.476 152.518 54.3861 152.626 54.2716C152.774 54.1149 152.898 53.9375 152.995 53.7449C153.13 53.4647 153.237 53.1718 153.314 52.8704C153.419 52.4468 153.502 52.0177 153.561 51.5851C153.631 51.0864 153.681 50.4991 153.711 49.823L156.698 49.8125Z" fill="black"/>
<path d="M161.558 54.952C161.514 54.9566 161.469 54.9443 161.433 54.9174C161.398 54.8905 161.373 54.8511 161.366 54.8071L161.295 54.1513C161.161 54.2825 161.02 54.4064 160.873 54.5226C160.738 54.6314 160.591 54.7251 160.436 54.8018C160.28 54.8793 160.116 54.9376 159.946 54.9757C159.756 55.0172 159.561 55.0376 159.367 55.0363C159.193 55.0368 159.021 55.0101 158.856 54.9572C158.694 54.9081 158.544 54.8276 158.413 54.7202C158.281 54.6074 158.175 54.4672 158.102 54.3093C158.021 54.1189 157.982 53.9132 157.986 53.7062C157.987 53.4909 158.052 53.2807 158.173 53.103C158.324 52.8946 158.524 52.7271 158.756 52.6157C159.079 52.4592 159.423 52.3484 159.778 52.2865C160.271 52.196 160.772 52.1476 161.274 52.1416V51.6149C161.299 51.2243 161.19 50.8368 160.965 50.5166C160.854 50.3857 160.714 50.2827 160.555 50.2159C160.397 50.1491 160.225 50.1204 160.054 50.132C159.838 50.1264 159.623 50.1612 159.419 50.2347C159.265 50.294 159.117 50.37 158.979 50.4612C158.877 50.5316 158.778 50.6081 158.684 50.6904C158.634 50.746 158.566 50.7823 158.492 50.7931C158.459 50.7948 158.427 50.7856 158.4 50.7668C158.375 50.7495 158.355 50.727 158.339 50.7009L158.25 50.5508C158.495 50.2993 158.782 50.0925 159.098 49.9397C159.414 49.7986 159.758 49.7284 160.104 49.7343C160.352 49.7291 160.598 49.7738 160.828 49.866C161.033 49.9457 161.214 50.0752 161.355 50.2426C161.498 50.4173 161.603 50.6201 161.663 50.8379C161.736 51.0948 161.771 51.3611 161.766 51.628V54.9757L161.558 54.952ZM159.49 54.6886C159.676 54.6904 159.861 54.6691 160.041 54.6254C160.202 54.5839 160.358 54.5229 160.504 54.4436C160.648 54.3709 160.783 54.2826 160.907 54.1803C161.031 54.0749 161.152 53.959 161.274 53.8352V52.4972C160.849 52.5045 160.426 52.5415 160.007 52.6078C159.706 52.6529 159.412 52.7352 159.132 52.8528C158.936 52.9329 158.761 53.0594 158.624 53.2215C158.517 53.3623 158.46 53.5348 158.463 53.7114C158.459 53.8642 158.487 54.016 158.548 54.1565C158.598 54.276 158.676 54.3823 158.774 54.4673C158.87 54.5488 158.982 54.6097 159.103 54.6464C159.23 54.6756 159.361 54.6863 159.49 54.6781V54.6886Z" fill="black"/>
<path d="M162.543 49.8125H167.339V50.1891H165.19V54.9538H164.695V50.1891H162.543V49.8125Z" fill="black"/>
<path d="M170.938 47.6414V49.7484C171.336 49.7521 171.731 49.8234 172.105 49.9591C172.423 50.0789 172.713 50.2637 172.956 50.5017C173.188 50.7362 173.367 51.0172 173.483 51.3261C173.718 52.0178 173.718 52.7679 173.483 53.4595C173.368 53.768 173.188 54.0482 172.956 54.2813C172.713 54.5148 172.423 54.6943 172.105 54.8081C171.731 54.9439 171.336 55.0151 170.938 55.0188V56.7914H170.475V55.0188C170.076 55.0158 169.68 54.9446 169.305 54.8081C168.989 54.6943 168.7 54.5147 168.457 54.2813C168.225 54.0482 168.045 53.768 167.93 53.4595C167.695 52.7679 167.695 52.0178 167.93 51.3261C168.046 51.0172 168.225 50.7362 168.457 50.5017C168.699 50.2637 168.988 50.0789 169.305 49.9591C169.68 49.8227 170.076 49.7514 170.475 49.7484V47.6414H170.938ZM168.247 52.3823C168.242 52.6915 168.289 52.9993 168.384 53.2936C168.468 53.5563 168.609 53.7972 168.797 53.9995C168.992 54.2033 169.229 54.3615 169.492 54.463C169.807 54.5814 170.139 54.6438 170.475 54.6474V54.521V54.3524V50.4016V50.2568V50.1119C170.139 50.1137 169.806 50.1771 169.492 50.2989C169.231 50.3977 168.995 50.5548 168.802 50.7584C168.61 50.9619 168.467 51.2065 168.384 51.4736C168.286 51.7657 168.237 52.0718 168.239 52.3797L168.247 52.3823ZM170.938 54.6474C171.274 54.6438 171.607 54.5814 171.921 54.463C172.184 54.3615 172.421 54.2033 172.616 53.9995C172.804 53.7972 172.945 53.5563 173.03 53.2936C173.212 52.7016 173.212 52.0683 173.03 51.4763C172.945 51.2093 172.8 50.9652 172.606 50.7626C172.413 50.5599 172.176 50.4041 171.913 50.3068C171.6 50.185 171.267 50.1216 170.93 50.1198V50.1672V50.4095V54.3603V54.5447L170.938 54.6474Z" fill="black"/>
<path d="M177.058 49.7303C177.398 49.7252 177.734 49.7888 178.049 49.9173C178.33 50.0361 178.581 50.2161 178.783 50.444C178.991 50.6889 179.146 50.9728 179.242 51.279C179.452 51.9916 179.452 52.7499 179.242 53.4624C179.147 53.768 178.991 54.0511 178.783 54.2947C178.582 54.5245 178.331 54.7048 178.049 54.8215C177.412 55.0709 176.705 55.0709 176.068 54.8215C175.785 54.7048 175.533 54.5245 175.33 54.2947C175.122 54.0517 174.965 53.7685 174.87 53.4624C174.659 52.7499 174.659 51.9916 174.87 51.279C174.965 50.9723 175.122 50.6883 175.33 50.444C175.534 50.2159 175.786 50.036 176.068 49.9173C176.382 49.7888 176.719 49.7252 177.058 49.7303ZM177.058 54.6345C177.33 54.6389 177.599 54.585 177.848 54.4765C178.074 54.3747 178.271 54.2192 178.423 54.0235C178.584 53.8123 178.701 53.5703 178.765 53.3123C178.92 52.7012 178.92 52.0613 178.765 51.4502C178.7 51.191 178.583 50.9475 178.423 50.7338C178.271 50.5373 178.074 50.3809 177.848 50.2781C177.594 50.172 177.321 50.1174 177.045 50.1174C176.769 50.1174 176.496 50.172 176.242 50.2781C176.016 50.3809 175.819 50.5373 175.668 50.7338C175.507 50.9479 175.39 51.1912 175.323 51.4502C175.168 52.0613 175.168 52.7012 175.323 53.3123C175.389 53.57 175.506 53.8118 175.668 54.0235C175.819 54.2192 176.016 54.3747 176.242 54.4765C176.499 54.5885 176.778 54.6425 177.058 54.6345Z" fill="black"/>
<path d="M180.79 56.7739V49.8126H181.054C181.072 49.8112 181.09 49.8134 181.108 49.8191C181.125 49.8248 181.142 49.8339 181.156 49.8459C181.17 49.8579 181.181 49.8726 181.189 49.889C181.198 49.9054 181.202 49.9233 181.204 49.9417L181.249 50.7318C181.46 50.4357 181.729 50.1849 182.039 49.9944C182.351 49.8151 182.706 49.724 183.066 49.731C183.346 49.717 183.626 49.7691 183.883 49.883C184.139 49.9969 184.366 50.1695 184.544 50.3868C184.895 50.824 185.07 51.4799 185.07 52.3543C185.073 52.7108 185.023 53.0657 184.923 53.4078C184.835 53.7153 184.687 54.0026 184.488 54.2533C184.299 54.4921 184.059 54.6855 183.785 54.8196C183.486 54.9634 183.158 55.0347 182.826 55.0277C182.514 55.0358 182.205 54.9699 181.923 54.8354C181.661 54.7028 181.434 54.5096 181.262 54.2717V56.7792L180.79 56.7739ZM182.95 50.1234C182.622 50.119 182.3 50.2105 182.023 50.3868C181.731 50.5801 181.481 50.8289 181.285 51.119V53.8345C181.444 54.0951 181.668 54.3095 181.936 54.4561C182.192 54.5793 182.474 54.6407 182.758 54.6352C183.03 54.6406 183.301 54.5838 183.548 54.4693C183.774 54.3616 183.97 54.2007 184.119 54.0005C184.28 53.7844 184.397 53.5393 184.465 53.2788C184.546 52.9756 184.585 52.6628 184.58 52.349C184.58 51.5852 184.44 51.0233 184.159 50.6634C184.015 50.4841 183.83 50.3417 183.62 50.2478C183.409 50.1539 183.18 50.1113 182.95 50.1234Z" fill="black"/>
<path d="M189.244 53.5282C189.277 53.438 189.317 53.35 189.362 53.2649L191.398 49.912C191.414 49.8711 191.444 49.8374 191.482 49.8171C191.517 49.8034 191.553 49.7962 191.59 49.7961H191.941V54.9637H191.501V50.8101C191.497 50.747 191.497 50.6836 191.501 50.6205C191.501 50.5546 191.517 50.4914 191.527 50.4335L189.42 53.9813C189.403 54.0087 189.381 54.0335 189.357 54.055C189.333 54.0762 189.302 54.0875 189.27 54.0866H189.212C189.18 54.0875 189.149 54.0762 189.125 54.055C189.101 54.0335 189.079 54.0087 189.062 53.9813L186.886 50.4282C186.886 50.4861 186.905 50.5494 186.913 50.6178C186.916 50.6819 186.916 50.7461 186.913 50.8101V54.9532H186.478V49.7803H186.842C186.876 49.7806 186.91 49.7887 186.942 49.804C186.978 49.8253 187.008 49.8575 187.026 49.8962L189.112 53.2543C189.163 53.3422 189.207 53.4338 189.244 53.5282Z" fill="black"/>
<path d="M196.802 54.9519C196.758 54.9566 196.714 54.9441 196.678 54.9172C196.643 54.8903 196.619 54.8509 196.612 54.8071L196.539 54.1512C196.405 54.2824 196.264 54.4064 196.117 54.5226C195.982 54.6314 195.835 54.725 195.68 54.8018C195.525 54.8801 195.36 54.9385 195.19 54.9756C195 55.0172 194.805 55.0375 194.611 55.0362C194.437 55.0364 194.265 55.0097 194.1 54.9572C193.939 54.9081 193.789 54.8275 193.66 54.7202C193.526 54.6089 193.42 54.4683 193.349 54.3093C193.266 54.1192 193.227 53.9133 193.233 53.7061C193.232 53.4911 193.297 53.2809 193.417 53.103C193.568 52.8939 193.769 52.7263 194.002 52.6157C194.325 52.4595 194.668 52.3487 195.021 52.2865C195.515 52.1961 196.016 52.1477 196.517 52.1416V51.6148C196.543 51.2243 196.434 50.8367 196.209 50.5165C196.098 50.3855 195.958 50.2824 195.799 50.2156C195.641 50.1488 195.469 50.1201 195.298 50.132C195.083 50.1265 194.868 50.1614 194.666 50.2347C194.511 50.294 194.362 50.37 194.223 50.4612C194.12 50.5316 194.022 50.6081 193.928 50.6904C193.88 50.7463 193.812 50.7828 193.739 50.7931C193.706 50.7948 193.673 50.7855 193.647 50.7667C193.62 50.7503 193.599 50.7277 193.583 50.7009L193.496 50.5508C193.741 50.2999 194.027 50.0932 194.342 49.9397C194.659 49.7982 195.003 49.728 195.351 49.7343C195.598 49.7295 195.845 49.7743 196.075 49.866C196.274 49.9485 196.45 50.0777 196.589 50.2426C196.73 50.4186 196.834 50.621 196.897 50.8379C196.969 51.0948 197.004 51.361 196.999 51.628V54.9756L196.802 54.9519ZM194.737 54.6886C194.921 54.6902 195.106 54.669 195.285 54.6253C195.447 54.5843 195.604 54.5233 195.751 54.4436C195.894 54.3709 196.028 54.2825 196.151 54.1802C196.275 54.0749 196.396 53.959 196.517 53.8352V52.4972C196.094 52.5045 195.672 52.5414 195.253 52.6078C194.952 52.6529 194.657 52.7352 194.376 52.8528C194.18 52.9317 194.006 53.0585 193.87 53.2215C193.763 53.3619 193.705 53.5344 193.707 53.7114C193.704 53.864 193.732 54.0157 193.791 54.1565C193.844 54.2756 193.922 54.3817 194.021 54.4673C194.116 54.5487 194.227 54.6096 194.347 54.6464C194.475 54.6756 194.606 54.6862 194.737 54.678V54.6886Z" fill="black"/>
<path d="M0 55.0484V42.2241C-6.25525e-08 38.3246 1.54889 34.5848 4.30601 31.8272C7.06313 29.0695 10.8027 27.52 14.7022 27.5193V40.3383C14.7032 42.2696 14.3237 44.1823 13.5853 45.967C12.8469 47.7516 11.7641 49.3733 10.3988 50.7394C9.03349 52.1054 7.41238 53.1891 5.62811 53.9285C3.84384 54.6678 1.93138 55.0484 0 55.0484Z" fill="#296CDB"/>
<path d="M18.2883 55.0476V28.4615C18.2883 24.5622 19.8372 20.8226 22.5944 18.0654C25.3516 15.3083 29.0912 13.7593 32.9905 13.7593V40.3375C32.9915 42.2689 32.612 44.1816 31.8736 45.9662C31.1352 47.7509 30.0524 49.3726 28.6871 50.7387C27.3218 52.1047 25.7006 53.1884 23.9164 53.9277C22.1321 54.6671 20.2197 55.0476 18.2883 55.0476Z" fill="#296CDB"/>
<path d="M36.5805 55.0476V14.7022C36.5805 10.8029 38.1295 7.06337 40.8867 4.30617C43.6439 1.54898 47.3834 0 51.2827 0V0V40.3375C51.2837 42.2689 50.9042 44.1816 50.1658 45.9662C49.4274 47.7509 48.3446 49.3726 46.9793 50.7386C45.614 52.1047 43.9929 53.1884 42.2086 53.9277C40.4243 54.6671 38.5119 55.0476 36.5805 55.0476Z" fill="#296CDB"/>
</svg>
